<svg width="183" height="59" viewBox="0 0 183 59" fill="none" xmlns="http://www.w3.org/2000/svg">
<path fill-rule="evenodd" clip-rule="evenodd" d="M22.7223 32.419C22.7223 27.0689 19.2787 22.3269 14.1913 20.6712L3.45996 17.1789C1.39665 16.5074 5.83796e-06 14.5841 0 12.4143C-9.13842e-06 9.01779 3.30795 6.60543 6.54195 7.64355L24.1607 13.2992C29.2721 14.94 32.7389 19.6939 32.7389 25.0622V53.3536C32.7389 56.9408 29.0783 59.3648 25.7757 57.9646C23.9246 57.1798 22.7223 55.3642 22.7223 53.3536V32.419Z" fill="#4193F6"/>
<path d="M34.0123 18.3545C33.1328 15.7054 34.5674 12.845 37.2165 11.9655L50.9516 7.40589C53.6006 6.52647 56.4611 7.96107 57.3405 10.6102C58.2199 13.2592 56.7853 16.1197 54.1362 16.9991L40.4012 21.5587C37.7521 22.4381 34.8917 21.0035 34.0123 18.3545Z" fill="#20E1C6"/>
<path d="M64.7108 9.30498C65.5668 8.33081 65.0473 6.79526 63.7756 6.54098L51.2399 4.0345C49.9683 3.78023 48.8982 4.99794 49.3138 6.22639L53.411 18.3358C53.8266 19.5643 55.4162 19.8821 56.2723 18.9079L64.7108 9.30498Z" fill="#20E1C6"/>
<path d="M79.5259 50.1261C76.8735 50.1261 74.6018 49.5611 72.7107 48.4309C70.8197 47.2887 69.3646 45.7016 68.3453 43.6697C67.3384 41.6378 66.835 39.2812 66.835 36.6001C66.835 33.9189 67.3384 31.5623 68.3453 29.5304C69.3646 27.4985 70.8197 25.9175 72.7107 24.7873C74.6018 23.6451 76.8735 23.074 79.5259 23.074C82.5835 23.074 85.1315 23.8254 87.1699 25.3283C89.2084 26.8192 90.6389 28.8331 91.4617 31.37L86.9858 32.5783C86.47 30.883 85.592 29.5605 84.3518 28.6107C83.1115 27.6488 81.5029 27.1679 79.5259 27.1679C77.7454 27.1679 76.2595 27.5586 75.0684 28.3401C73.8896 29.1216 72.9993 30.2218 72.3976 31.6405C71.8082 33.0472 71.5073 34.7004 71.4951 36.6001C71.4951 38.4997 71.7898 40.1589 72.3792 41.5777C72.9809 42.9844 73.8773 44.0785 75.0684 44.86C76.2595 45.6415 77.7454 46.0323 79.5259 46.0323C81.5029 46.0323 83.1115 45.5513 84.3518 44.5895C85.592 43.6276 86.47 42.3051 86.9858 40.6218L91.4617 41.8301C90.6389 44.367 89.2084 46.3869 87.1699 47.8898C85.1315 49.3807 82.5835 50.1261 79.5259 50.1261Z" fill="#022129"/>
<path d="M101.069 50.1261C99.6318 50.1261 98.4161 49.8616 97.4215 49.3326C96.4268 48.7916 95.6716 48.0762 95.1559 47.1865C94.6524 46.2968 94.4007 45.3169 94.4007 44.2468C94.4007 43.309 94.5603 42.4674 94.8796 41.7219C95.1989 40.9645 95.6901 40.3152 96.3531 39.7742C97.0162 39.2211 97.8758 38.7702 98.9319 38.4216C99.73 38.1691 100.663 37.9406 101.732 37.7363C102.812 37.5319 103.979 37.3455 105.231 37.1772C106.496 36.9968 107.816 36.8045 109.191 36.6001L107.607 37.4838C107.62 36.1372 107.313 35.1453 106.686 34.508C106.06 33.8708 105.004 33.5522 103.518 33.5522C102.622 33.5522 101.756 33.7566 100.921 34.1654C100.086 34.5742 99.5029 35.2775 99.1713 36.2754L95.1191 35.031C95.6102 33.3839 96.5435 32.0613 97.9188 31.0634C99.3064 30.0655 101.173 29.5665 103.518 29.5665C105.287 29.5665 106.84 29.849 108.178 30.4141C109.529 30.9792 110.53 31.905 111.181 33.1915C111.537 33.8768 111.752 34.5802 111.825 35.3016C111.899 36.0109 111.936 36.7864 111.936 37.628V49.5851H108.049V45.365L108.694 46.0503C107.798 47.457 106.748 48.491 105.544 49.1523C104.353 49.8015 102.861 50.1261 101.069 50.1261ZM101.953 46.6635C102.96 46.6635 103.819 46.4891 104.531 46.1405C105.244 45.7918 105.808 45.365 106.226 44.86C106.656 44.355 106.944 43.8801 107.092 43.4352C107.325 42.8822 107.454 42.251 107.478 41.5416C107.515 40.8202 107.534 40.2371 107.534 39.7922L108.897 40.189C107.558 40.3934 106.41 40.5737 105.452 40.73C104.495 40.8863 103.672 41.0366 102.984 41.1809C102.296 41.3132 101.689 41.4634 101.161 41.6318C100.645 41.8121 100.209 42.0225 99.8528 42.263C99.4967 42.5034 99.2204 42.78 99.024 43.0926C98.8398 43.4052 98.7477 43.7719 98.7477 44.1927C98.7477 44.6736 98.8705 45.1005 99.1161 45.4732C99.3616 45.8339 99.7178 46.1224 100.184 46.3388C100.663 46.5553 101.253 46.6635 101.953 46.6635Z" fill="#022129"/>
<path d="M116.731 49.5851V30.1075H120.655V34.8507L120.176 34.2375C120.421 33.5883 120.747 32.9991 121.152 32.4701C121.569 31.9291 122.067 31.4842 122.644 31.1355C123.135 30.8109 123.675 30.5584 124.265 30.3781C124.867 30.1857 125.481 30.0715 126.107 30.0354C126.733 29.9873 127.341 30.0114 127.93 30.1075V34.1654C127.341 33.997 126.659 33.9429 125.886 34.0031C125.124 34.0632 124.437 34.2736 123.823 34.6343C123.209 34.9589 122.705 35.3737 122.312 35.8787C121.932 36.3836 121.649 36.9608 121.465 37.61C121.281 38.2472 121.189 38.9386 121.189 39.684V49.5851H116.731Z" fill="#022129"/>
<path d="M140.129 50.1261C138.116 50.1261 136.347 49.6993 134.825 48.8457C133.302 47.992 132.111 46.8077 131.251 45.2928C130.404 43.7779 129.98 42.0345 129.98 40.0627C129.98 37.9346 130.398 36.0891 131.233 34.5261C132.068 32.951 133.228 31.7307 134.714 30.865C136.2 29.9993 137.919 29.5665 139.872 29.5665C141.934 29.5665 143.684 30.0414 145.121 30.9912C146.57 31.9291 147.644 33.2576 148.344 34.9769C149.044 36.6962 149.308 38.7222 149.136 41.0547H144.734V39.4676C144.722 37.3515 144.341 35.8065 143.592 34.8327C142.843 33.8588 141.664 33.3718 140.056 33.3718C138.238 33.3718 136.888 33.9249 136.003 35.031C135.119 36.1251 134.677 37.7302 134.677 39.8463C134.677 41.8181 135.119 43.3451 136.003 44.4272C136.888 45.5092 138.177 46.0503 139.872 46.0503C140.964 46.0503 141.904 45.8158 142.69 45.3469C143.488 44.866 144.102 44.1747 144.532 43.2729L148.915 44.5714C148.154 46.3268 146.975 47.6915 145.379 48.6653C143.795 49.6392 142.045 50.1261 140.129 50.1261ZM133.277 41.0547V37.7723H146.963V41.0547H133.277Z" fill="#022129"/>
<path d="M153.264 49.5851V45.1305H157.813V49.5851H153.264Z" fill="#022129"/>
<path d="M165.447 49.5851V29.8009C165.447 29.308 165.465 28.767 165.502 28.1778C165.539 27.5767 165.643 26.9815 165.815 26.3924C165.987 25.8032 166.3 25.2682 166.754 24.7873C167.319 24.1741 167.927 23.7533 168.578 23.5248C169.241 23.2844 169.892 23.1521 170.53 23.1281C171.169 23.092 171.728 23.074 172.206 23.074H174.693V26.6088H172.391C171.543 26.6088 170.911 26.8192 170.493 27.24C170.088 27.6488 169.886 28.1898 169.886 28.8631V49.5851H165.447ZM162.242 33.5161V30.1075H174.693V33.5161H162.242ZM178.561 27.1498V23.1641H183V27.1498H178.561ZM178.561 49.5851V30.1075H183V49.5851H178.561Z" fill="#022129"/>
</svg>
