<?xml version="1.0" standalone="no"?>
<!DOCTYPE svg PUBLIC "-//W3C//DTD SVG 20010904//EN"
 "http://www.w3.org/TR/2001/REC-SVG-20010904/DTD/svg10.dtd">
<svg version="1.0" xmlns="http://www.w3.org/2000/svg"
 width="1078.000000pt" height="1114.000000pt" viewBox="0 0 1078.000000 1114.000000"
 preserveAspectRatio="xMidYMid meet">

<g transform="translate(0.000000,1114.000000) scale(0.100000,-0.100000)"
fill="#000000" stroke="none">
<path d="M4865 10639 c-547 -47 -1015 -154 -1505 -346 -826 -324 -1520 -844
-2127 -1594 -269 -332 -575 -854 -735 -1253 -167 -418 -294 -928 -338 -1356
-6 -58 -13 -126 -16 -153 l-5 -47 358 2 358 3 11 110 c74 686 319 1362 709
1955 308 468 758 919 1235 1237 596 397 1248 635 1975 720 212 25 738 25 950
0 351 -41 731 -129 1028 -239 1182 -434 2126 -1346 2595 -2509 153 -378 264
-824 300 -1209 l7 -75 358 -3 357 -2 -6 57 c-39 402 -79 625 -164 938 -141
510 -356 990 -643 1433 -373 574 -893 1094 -1487 1487 -731 483 -1569 773
-2443 845 -148 12 -626 11 -772 -1z"/>
<path d="M3310 5530 l0 -2880 430 0 430 0 2 2092 3 2092 286 -530 c436 -804
1111 -2053 1567 -2894 l408 -755 387 -3 387 -2 0 2880 0 2880 -425 0 -425 0 0
-1977 0 -1978 -99 185 c-55 102 -532 991 -1060 1975 l-960 1790 -465 3 -466 2
0 -2880z"/>
<path d="M144 5128 c3 -24 8 -74 11 -113 43 -506 209 -1121 438 -1620 263
-572 596 -1044 1059 -1501 410 -405 869 -730 1393 -985 342 -167 688 -291
1030 -368 413 -93 754 -131 1185 -131 442 0 806 42 1218 141 427 101 896 284
1287 501 715 397 1384 1036 1836 1753 451 715 685 1414 773 2308 l6 57 -357
-2 -358 -3 -12 -114 c-82 -789 -412 -1605 -902 -2229 -667 -852 -1588 -1421
-2636 -1631 -287 -57 -532 -81 -855 -81 -255 0 -406 10 -612 40 -833 121
-1576 451 -2219 987 -125 104 -351 325 -477 466 -606 682 -992 1554 -1086
2452 l-11 110 -358 3 -358 2 5 -42z"/>
</g>
</svg>
